# xmcd
#
# Track frame offsets:
#	150
#	21732
#	44149
#	64168
#	83014
#	104196
#	122402
#	138551
#	160092
#	177637
#
# Disc length: 2596 seconds
#
# Revision: 4
# Processed by: cddbd v1.5.2PL0 Copyright (c) Steve Scherf et al.
# Submitted via: audiograbber 1.83.01
#
DISCID=960a220a
DTITLE=Various Artist - AUDIO 2019-06 - Rockin' The Blues 2019
DYEAR=2019
DGENRE=Blues
TTITLE0=Joe Bonamassa - Deep In The Blues Again
TTITLE1=Reese Wynans - Crossfire
TTITLE2=Walter Trout - Red Sun
TTITLE3=Kenny Wayne Shepherd - Long Time Running
TTITLE4=Gary Hoey - Damned If I Do [featuring Lance Lopez]
TTITLE5=Kris Barras Band - Lovers Or Losers
TTITLE6=Jonny Lang - Stronger Together
TTITLE7=Robert Randolph and The Family Band - Cry Over Me
TTITLE8=George Benson - Nadine (Is it You)
TTITLE9=Robin Trower - Tide Of Confusion
EXTD=
EXTT0=
EXTT1=
EXTT2=
EXTT3=
EXTT4=
EXTT5=
EXTT6=
EXTT7=
EXTT8=
EXTT9=
PLAYORDER=
